<svg xmlns="http://www.w3.org/2000/svg" xmlns:xlink="http://www.w3.org/1999/xlink" version="1.1" style="" xml:space="preserve" width="496.60400390625" height="496.60400390625"><rect id="backgroundrect" width="100%" height="100%" x="0" y="0" fill="none" stroke="none"/>
















<g class="currentLayer" style=""><title>Beer</title><path fill="#934c23" fill-opacity="1" stroke="none" stroke-opacity="1" stroke-width="1" stroke-dasharray="none" stroke-linejoin="miter" stroke-linecap="butt" stroke-dashoffset="" fill-rule="nonzero" opacity="1" marker-start="" marker-mid="" marker-end="" id="svg_19" d="M 111.2649682096173 82.54357920492262 C 111.2649682096173 82.54357920492262 187.5612631584725 95.13617157512203 187.5612631584725 95.13617157512203 C 187.5612631584725 95.13617157512203 265.33903956264527 104.02506030702746 265.33903956264527 104.02506030702746 C 265.33903956264527 104.02506030702746 314.9686683157841 93.65469011980446 314.9686683157841 93.65469011980446 C 314.9686683157841 93.65469011980446 354.96866760935876 86.98802357087536 354.8148148148148 86.66666666666666 C 354.96866760935876 86.98802357087536 389.042741081663 81.80283847726383 389.042741081663 81.80283847726383 C 389.042741081663 81.80283847726383 371.26496361785206 242.543576379221 371.26496361785206 242.543576379221 C 371.26496361785206 242.543576379221 365.33903779658175 293.6546865876774 365.33903779658175 293.6546865876774 C 365.33903779658175 293.6546865876774 346.8205196051121 396.61764773224905 346.8205196051121 396.61764773224905 C 346.8205196051121 396.61764773224905 146.07978240958033 398.8398699152254 146.07978240958033 398.8398699152254" style="color: rgb(147, 76, 35);" class=""/><g id="pint-glass_1_" class="">
	<line style="fill:#000100;" x1="83.21964263916016" y1="56.435001373291016" x2="83.21964263916016" y2="56.435001373291016" id="svg_1"/>
	<g id="svg_2">
		<path style="fill:#000100;" d="M248.94563768720627,0 c-16.444,0 -170.9,3.757 -165.204,56.435 c11.628,107.517 49.806,425.28 49.806,425.28 c1.016,8.498 8.225,14.89 16.783,14.89 h197.22 c8.559,0 15.763,-6.392 16.778,-14.89 c0,0 37.239,-316.425 50.333,-425.28 C420.6856376872063,6.36 265.38563768720627,0 248.94563768720627,0 zM332.5536376872063,462.802 H165.32763768720628 l-4.579,-38.228 h176.384 L332.5536376872063,462.802 zM341.17763768720624,390.767 H156.70463768720626 L121.25063768720626,94.885 c45.45,17.02 116.279,17.813 127.695,17.813 s82.235,-0.793 127.677,-17.813 L341.17763768720624,390.767 zM248.94563768720627,78.886 c-70.94,0 -118.325,-13.378 -130.482,-22.544 c12.157,-9.162 59.551,-22.53 130.482,-22.53 c70.927,0 118.315,13.368 130.474,22.53 C367.26063768720627,65.508 319.8726376872063,78.886 248.94563768720627,78.886 z" id="svg_3"/>
	</g>
</g><path fill="#ffffff" fill-opacity="1" stroke="none" stroke-opacity="1" stroke-width="1" stroke-dasharray="none" stroke-linejoin="miter" stroke-linecap="butt" stroke-dashoffset="" fill-rule="nonzero" opacity="1" marker-start="" marker-mid="" marker-end="" d="M107.13333296079007,52.29999974824051 C107.13333296079007,30.439962927465242 171.60515382654333,12.733333102637289 251.19999440154737,12.733333102637289 C330.7948349765514,12.733333102637289 395.26665584230466,30.439962927465242 395.26665584230466,52.29999974824051 C395.26665584230466,74.16003656901577 330.7948349765514,91.86666639384373 251.19999440154737,91.86666639384373 C171.60515382654333,91.86666639384373 107.13333296079007,74.16003656901577 107.13333296079007,52.29999974824051 z" id="svg_22" class=""/><g id="svg_4">
</g><g id="svg_5">
</g><g id="svg_6">
</g><g id="svg_7">
</g><g id="svg_8">
</g><g id="svg_9">
</g><g id="svg_10">
</g><g id="svg_11">
</g><g id="svg_12">
</g><g id="svg_13">
</g><g id="svg_14">
</g><g id="svg_15">
</g><g id="svg_16">
</g><g id="svg_17">
</g><g id="svg_18">
</g></g></svg>